<svg xmlns="http://www.w3.org/2000/svg" xmlns:xlink="http://www.w3.org/1999/xlink" xmlns:v="http://vecta.io" width="150" height="151" viewBox="0 0 150 151" ><style>svg{stroke:#000;stroke-linecap:round;stroke-linejoin:round;fill:#fff;fill-rule:evenodd;font-family:Roboto;font-size:14px;text-anchor:middle}svg text{stroke:none}</style><style>svg{stroke:#000;stroke-linecap:round;stroke-linejoin:round;fill:#fff;fill-rule:evenodd;font-family:Roboto;font-size:14px;text-anchor:middle}svg text{stroke:none}</style><g transform="translate(0.4998 1.5)"><path d="M 96.8751 112.5 L 90.6252 112.5 C 88.8993 112.5 87.5001 113.8992 87.5001 115.6251 L 87.5001 137.5002 L 12.5001 137.5002 L 12.5001 12.5001 L 87.5001 12.5001 L 87.5001 34.3752 C 87.5001 36.1011 88.8993 37.5003 90.6252 37.5003 L 96.8751 37.5003 C 98.601 37.5003 100.0002 36.1011 100.0002 34.3752 L 100.0002 12.5001 C 99.9999 5.5966 94.4036 0 87.5001 0 L 12.5001 0 C 5.5966 0 0 5.5966 0 12.5001 L 0 137.5002 C 0 144.4037 5.5966 150 12.5001 150 L 87.5001 150 C 94.4036 150 100.0002 144.4037 100.0002 137.4999 L 100.0002 115.6248 C 99.9999 113.8992 98.601 112.5 96.8751 112.5 Z" fill="#3c6df0" stroke="#3c6df0" stroke-opacity="1" stroke-width="0.29295855218544775"/></g><g transform="translate(37.2932 37.2911)"><path d="M 111.4869 35.1977 L 73.9869 0.8228 C 73.0714 -0.0104 71.7439 -0.2392 70.6178 0.2673 C 69.4825 0.7648 68.7501 1.8877 68.7501 3.1267 L 68.7501 9.3769 C 68.7501 10.2619 69.1254 11.1072 69.7845 11.6992 L 91.5085 31.252 L 3.1251 31.252 C 1.3977 31.252 0 32.6497 0 34.3771 L 0 40.627 C 0 42.3543 1.3977 43.7521 3.1251 43.7521 L 91.5085 43.7521 L 69.7845 63.3048 C 69.1254 63.8969 68.7501 64.7421 68.7501 65.6272 L 68.7501 71.8771 C 68.7501 73.116 69.4825 74.2393 70.6178 74.7364 C 71.0206 74.9166 71.4509 75.0019 71.8752 75.0019 C 72.6414 75.0019 73.3981 74.718 73.9869 74.181 L 111.4869 39.8061 C 112.1338 39.214 112.5 38.3779 112.5 37.5019 C 112.5 36.6259 112.1338 35.7898 111.4869 35.1977 Z" fill="#3c6df0" stroke="#3c6df0" stroke-width="0.29295855218544775"/></g></svg>