<?xml version="1.0" encoding="UTF-8" standalone="no"?>
<svg
   xmlns:dc="http://purl.org/dc/elements/1.1/"
   xmlns:cc="http://creativecommons.org/ns#"
   xmlns:rdf="http://www.w3.org/1999/02/22-rdf-syntax-ns#"
   xmlns:svg="http://www.w3.org/2000/svg"
   xmlns="http://www.w3.org/2000/svg"
   xmlns:sodipodi="http://sodipodi.sourceforge.net/DTD/sodipodi-0.dtd"
   xmlns:inkscape="http://www.inkscape.org/namespaces/inkscape"
   width="30px" 
   height="30px"
   viewBox="0 0 200 200"
   version="1.1"
   id="svg14"
   sodipodi:docname="logout.svg"
   inkscape:version="0.92.2 5c3e80d, 2017-08-06">
  <metadata
     id="metadata20">
    <rdf:RDF>
      <cc:Work
         rdf:about="">
        <dc:format>image/svg+xml</dc:format>
        <dc:type
           rdf:resource="http://purl.org/dc/dcmitype/StillImage" />
        <dc:title></dc:title>
      </cc:Work>
    </rdf:RDF>
  </metadata>
  <defs
     id="defs18" />
  <sodipodi:namedview
     pagecolor="#ffffff"
     bordercolor="#666666"
     borderopacity="1"
     objecttolerance="10"
     gridtolerance="10"
     guidetolerance="10"
     inkscape:pageopacity="0"
     inkscape:pageshadow="2"
     inkscape:window-width="1115"
     inkscape:window-height="680"
     id="namedview16"
     showgrid="false"
     inkscape:zoom="0.28851291"
     inkscape:cx="110.91358"
     inkscape:cy="397"
     inkscape:window-x="0"
     inkscape:window-y="0"
     inkscape:window-maximized="0"
     inkscape:current-layer="svg14" />
  <style
     id="style2">svg{stroke:#000;stroke-linecap:round;stroke-linejoin:round;fill:#fff;fill-rule:evenodd;font-family:Roboto;font-size:14px;text-anchor:middle}svg text{stroke:none}</style>
  <style
     id="style4">svg{stroke:#000;stroke-linecap:round;stroke-linejoin:round;fill:#fff;fill-rule:evenodd;font-family:Roboto;font-size:14px;text-anchor:middle}svg text{stroke:none}</style>
  <g
     id="g4520">
    <g
       id="g8">
      <path
         id="path6"
         stroke-width="0.29295855218544775"
         stroke-opacity="1"
         stroke="#3c6df0"
         fill="#3c6df0"
         d="M 96.8751 112.5 L 90.6252 112.5 C 88.8993 112.5 87.5001 113.8992 87.5001 115.6251 L 87.5001 137.5002 L 12.5001 137.5002 L 12.5001 12.5001 L 87.5001 12.5001 L 87.5001 34.3752 C 87.5001 36.1011 88.8993 37.5003 90.6252 37.5003 L 96.8751 37.5003 C 98.601 37.5003 100.0002 36.1011 100.0002 34.3752 L 100.0002 12.5001 C 99.9999 5.5966 94.4036 0 87.5001 0 L 12.5001 0 C 5.5966 0 0 5.5966 0 12.5001 L 0 137.5002 C 0 144.4037 5.5966 150 12.5001 150 L 87.5001 150 C 94.4036 150 100.0002 144.4037 100.0002 137.4999 L 100.0002 115.6248 C 99.9999 113.8992 98.601 112.5 96.8751 112.5 Z" />
    </g>
    <g
       transform="translate(62.388888,34.660494)"
       id="g12">
      <path
         style="fill:#3c6df0;stroke:#3c6df0;stroke-width:0.29295856"
         inkscape:connector-curvature="0"
         id="path10"
         d="m 111.4869,35.1977 -37.5,-34.3749 c -0.9155,-0.8332 -2.243,-1.062 -3.3691,-0.5555 -1.1353,0.4975 -1.8677,1.6204 -1.8677,2.8594 v 6.2502 c 0,0.885 0.3753,1.7303 1.0344,2.3223 L 91.5085,31.252 H 3.1251 C 1.3977,31.252 0,32.6497 0,34.3771 v 6.2499 c 0,1.7273 1.3977,3.1251 3.1251,3.1251 h 88.3834 l -21.724,19.5527 c -0.6591,0.5921 -1.0344,1.4373 -1.0344,2.3224 v 6.2499 c 0,1.2389 0.7324,2.3622 1.8677,2.8593 0.4028,0.1802 0.8331,0.2655 1.2574,0.2655 0.7662,0 1.5229,-0.2839 2.1117,-0.8209 l 37.5,-34.3749 c 0.6469,-0.5921 1.0131,-1.4282 1.0131,-2.3042 0,-0.876 -0.3662,-1.7121 -1.0131,-2.3042 z" />
    </g>
  </g>
</svg>
