<?xml version="1.0" encoding="iso-8859-1"?>
<!-- Generator: Adobe Illustrator 19.1.0, SVG Export Plug-In . SVG Version: 6.00 Build 0)  -->
<svg xmlns="http://www.w3.org/2000/svg" xmlns:xlink="http://www.w3.org/1999/xlink" version="1.1" id="Capa_1" x="0px" y="0px" viewBox="0 0 503.301 503.301" style="enable-background:new 0 0 503.301 503.301;" xml:space="preserve" width="512px" height="512px">
<g>
	<g>
		<path d="M280.843,128.879c-55.021,0-110.042,0-165.063,0c-15.444,0-15.444,24.132,0,24.132c55.021,0,110.042,0,165.063,0    C296.287,153.011,296.287,128.879,280.843,128.879z" fill="#006DF0"/>
		<path d="M280.843,236.991c-55.021,0-110.042,0-165.063,0c-15.444,0-15.444,24.132,0,24.132c55.021,0,110.042,0,165.063,0    C296.287,261.123,296.287,236.991,280.843,236.991z" fill="#006DF0"/>
		<path d="M280.843,345.102c-55.021,0-110.042,0-165.063,0c-15.444,0-15.444,24.132,0,24.132c55.021,0,110.042,0,165.063,0    C296.287,369.234,296.287,345.102,280.843,345.102z" fill="#006DF0"/>
		<path d="M492.239,394.331c0-49.229,0-98.459,0-147.688c0-37.646,0-75.292,0-112.938c0-34.75-18.34-53.09-53.09-53.09    c-14.479,0-28.958,0-44.403,0c0-4.826,0-10.618,0-15.444c0-29.924-3.861-60.813-41.507-63.709c-27.028-1.931-55.021,0-82.049,0    c-49.229,0-98.459,0-146.723,0c-26.063,0-55.021-3.861-81.084,0.965C9.599,9.184,9.599,41.039,9.599,68.067    c0,88.806,0,177.612,0,266.417c0,36.681,0,73.361,0,110.042c0,28.958,6.757,55.986,41.507,57.917c28.958,1.931,58.882,0,87.841,0    c49.229,0,97.493,0,146.723,0c27.993,0,55.021,0,83.014,0c25.097,0,50.195,0,75.292,0c22.201,0,42.472-9.653,47.299-33.785    C496.101,446.456,492.239,418.463,492.239,394.331z M465.212,468.658c-8.688,16.41-37.646,10.618-54.056,10.618    c-30.889,0-61.778,0-92.667,0c-81.084,0-161.202,0-242.285,0c-20.271,0-40.542,1.931-42.472-24.132    c-1.931-27.028,0-55.021,0-82.049c0-86.875,0-172.785,0-259.66c0-22.201-2.896-46.333,0-68.535    c3.861-26.063,38.611-18.34,57.917-18.34c80.118,0,160.237,0,239.39,0c6.757,0,14.479-0.965,21.236,0    c16.41,2.896,17.375,14.479,17.375,27.028c0,31.854,0,63.709,0,96.528c0,80.118,0,160.237,0,240.355c0,5.792,0,10.618,0,16.41    c0,15.444,24.132,15.444,24.132,0c0-72.396,0-144.792,0-218.153c0-27.993,0-55.986,0-83.979c12.549,0,25.097,0,37.646,0    c16.41,0,32.82-1.931,35.715,19.306c3.861,26.063,0,54.056,0,80.118c0,80.118,0,161.202,0,241.32    C468.107,454.179,469.073,461.901,465.212,468.658z" fill="#006DF0"/>
	</g>
	<g>
	</g>
	<g>
	</g>
	<g>
	</g>
	<g>
	</g>
	<g>
	</g>
	<g>
	</g>
	<g>
	</g>
	<g>
	</g>
	<g>
	</g>
	<g>
	</g>
	<g>
	</g>
	<g>
	</g>
	<g>
	</g>
	<g>
	</g>
	<g>
	</g>
</g>
<g>
</g>
<g>
</g>
<g>
</g>
<g>
</g>
<g>
</g>
<g>
</g>
<g>
</g>
<g>
</g>
<g>
</g>
<g>
</g>
<g>
</g>
<g>
</g>
<g>
</g>
<g>
</g>
<g>
</g>
</svg>
