<?xml version="1.0"?>
<svg xmlns="http://www.w3.org/2000/svg" xmlns:xlink="http://www.w3.org/1999/xlink" version="1.1" id="Capa_1" x="0px" y="0px" viewBox="0 0 512 512" style="enable-background:new 0 0 512 512;" xml:space="preserve" width="512px" height="512px" class=""><g><g>
	<g>
		<rect x="174.647" y="407.749" width="336.171" height="30.075" data-original="#000000" class="active-path" data-old_color="#0016FF" fill="#0871EC"/>
	</g>
</g><g>
	<g>
		<polygon points="270.587,326.056 256.052,302.461 235.406,315.101 236.038,292.56 207.808,292.56 208.441,315.101     187.795,302.461 173.469,326.056 193.694,336.801 173.469,347.545 187.795,371.14 208.441,358.499 207.808,381.04 236.038,381.04     235.406,358.499 256.052,371.14 270.587,347.545 250.363,336.801   " data-original="#000000" class="active-path" data-old_color="#0016FF" fill="#0871EC"/>
	</g>
</g><g>
	<g>
		<polygon points="391.293,326.056 376.758,302.461 356.111,315.101 356.744,292.56 328.514,292.56 329.146,315.101     308.501,302.461 294.175,326.056 314.4,336.801 294.175,347.545 308.501,371.14 329.146,358.499 328.514,381.04 356.744,381.04     356.111,358.499 376.758,371.14 391.293,347.545 371.069,336.801   " data-original="#000000" class="active-path" data-old_color="#0016FF" fill="#0871EC"/>
	</g>
</g><g>
	<g>
		<polygon points="512,326.056 497.464,302.461 476.818,315.101 477.45,292.56 449.22,292.56 449.853,315.101 429.207,302.461     414.881,326.056 435.106,336.801 414.881,347.545 429.207,371.14 449.853,358.499 449.22,381.04 477.45,381.04 476.818,358.499     497.464,371.14 512,347.545 491.775,336.801   " data-original="#000000" class="active-path" data-old_color="#0016FF" fill="#0871EC"/>
	</g>
</g><g>
	<g>
		<rect x="174.647" y="213.192" width="336.171" height="30.075" data-original="#000000" class="active-path" data-old_color="#0016FF" fill="#0871EC"/>
	</g>
</g><g>
	<g>
		<polygon points="270.587,131.498 256.052,107.903 235.406,120.544 236.038,98.002 207.808,98.002 208.441,120.544     187.795,107.903 173.469,131.498 193.694,142.243 173.469,152.987 187.795,176.582 208.441,163.941 207.808,186.483     236.038,186.483 235.406,163.941 256.052,176.582 270.587,152.987 250.363,142.243   " data-original="#000000" class="active-path" data-old_color="#0016FF" fill="#0871EC"/>
	</g>
</g><g>
	<g>
		<polygon points="391.293,131.498 376.758,107.903 356.111,120.544 356.744,98.002 328.514,98.002 329.146,120.544     308.501,107.903 294.175,131.498 314.4,142.243 294.175,152.987 308.501,176.582 329.146,163.941 328.514,186.483     356.744,186.483 356.111,163.941 376.758,176.582 391.293,152.987 371.069,142.243   " data-original="#000000" class="active-path" data-old_color="#0016FF" fill="#0871EC"/>
	</g>
</g><g>
	<g>
		<polygon points="512,131.498 497.464,107.903 476.818,120.544 477.45,98.002 449.22,98.002 449.853,120.544 429.207,107.903     414.881,131.498 435.106,142.243 414.881,152.987 429.207,176.582 449.853,163.941 449.22,186.483 477.45,186.483     476.818,163.941 497.464,176.582 512,152.987 491.775,142.243   " data-original="#000000" class="active-path" data-old_color="#0016FF" fill="#0871EC"/>
	</g>
</g><g>
	<g>
		<path d="M123.428,348.024v-19.881h-0.001c0-28.007-22.786-50.792-50.792-50.792c-28.006,0-50.792,22.785-50.792,50.792v19.881    H2.41v89.799h140.449v-89.799H123.428z M93.352,348.023H51.917v-19.881c0-11.423,9.294-20.717,20.718-20.717    c11.424,0,20.717,9.293,20.717,20.717V348.023z" data-original="#000000" class="active-path" data-old_color="#0016FF" fill="#0871EC"/>
	</g>
</g><g>
	<g>
		<path d="M143.025,200.043c-4.839-17.919-16.186-32.781-31.072-42.323c7.317-8.835,11.72-20.165,11.72-32.505    c0-28.143-22.896-51.04-51.04-51.04s-51.04,22.896-51.04,51.04c0,12.341,4.404,23.671,11.72,32.505    c-14.885,9.543-26.233,24.405-31.073,42.324L0,208.35l34.239,34.914h76.791l34.239-34.914L143.025,200.043z" data-original="#000000" class="active-path" data-old_color="#0016FF" fill="#0871EC"/>
	</g>
</g></g> </svg>
