<?xml version="1.0" encoding="iso-8859-1"?>
<!-- Generator: Adobe Illustrator 18.0.0, SVG Export Plug-In . SVG Version: 6.00 Build 0)  -->
<!DOCTYPE svg PUBLIC "-//W3C//DTD SVG 1.1//EN" "http://www.w3.org/Graphics/SVG/1.1/DTD/svg11.dtd">
<svg xmlns="http://www.w3.org/2000/svg" xmlns:xlink="http://www.w3.org/1999/xlink" version="1.1" id="Capa_1" x="0px" y="0px" viewBox="0 0 368.401 368.401" style="enable-background:new 0 0 368.401 368.401;" xml:space="preserve" width="30px" height="30px">
<g>
	<path d="M212.321,92.206V10c0-5.523-4.478-10-10-10H166.08c-5.523,0-10,4.477-10,10v82.206   c-16.562,9.839-26.948,27.774-26.948,47.355v210.512c0,10.106,8.222,18.328,18.328,18.328h73.482   c10.106,0,18.328-8.222,18.328-18.328V139.561C239.27,119.98,228.883,102.044,212.321,92.206z M219.27,348.401h-70.138v-208.84   c0-13.911,8.232-26.519,20.973-32.12c3.631-1.596,5.975-5.188,5.975-9.154V20h16.241v78.287c0,3.966,2.345,7.558,5.976,9.154   c12.741,5.602,20.974,18.209,20.974,32.12V348.401z" fill="#006DF0"/>
</g>
<g>
</g>
<g>
</g>
<g>
</g>
<g>
</g>
<g>
</g>
<g>
</g>
<g>
</g>
<g>
</g>
<g>
</g>
<g>
</g>
<g>
</g>
<g>
</g>
<g>
</g>
<g>
</g>
<g>
</g>
</svg>
